<svg width="800" height="800" viewBox="0 0 800 800" fill="none" xmlns="http://www.w3.org/2000/svg">
<g clip-path="url(#clip0_1252_11)">
<g filter="url(#filter0_d_1252_11)">
<path d="M207.29 574.77C396.559 662.125 590.984 594.486 664.539 549.747C464.35 731.736 245.963 615.718 207.29 588.42C176.352 566.581 194.399 570.221 207.29 574.77Z" fill="#E03FBA"/>
<path d="M186.816 620.269C192.276 629.368 189.091 631.643 186.816 631.643C159.951 619.106 151.446 570.291 150.46 546.338C177.792 529.052 216.389 540.647 234.588 547.472C259.612 558.847 239.138 561.121 227.764 558.847C209.565 556.571 192.124 556.572 179.991 558.847C159.517 558.847 179.991 608.894 186.816 620.269Z" fill="#E03FBA"/>
</g>
<g filter="url(#filter1_d_1252_11)">
<path d="M607.704 225.23C418.435 137.875 224.009 205.514 150.455 250.253C350.643 68.2636 569.031 184.282 607.704 211.58C638.642 233.419 620.595 229.779 607.704 225.23Z" fill="#49E9F8"/>
<path d="M628.178 179.731C622.718 170.632 625.903 168.357 628.178 168.357C655.042 180.894 663.547 229.709 664.534 253.662C637.201 270.948 598.604 259.353 580.405 252.528C555.382 241.153 575.856 238.879 587.23 241.153C605.429 243.429 622.87 243.428 635.002 241.153C655.476 241.153 635.002 191.106 628.178 179.731Z" fill="#49E9F8"/>
<path d="M664.533 253.662C664.521 253.288 664.549 254.049 664.533 253.662ZM664.533 253.662C663.547 229.709 655.042 180.894 628.178 168.357C625.903 168.357 622.718 170.632 628.178 179.731C635.002 191.106 655.476 241.153 635.002 241.153C622.87 243.428 605.429 243.429 587.23 241.153C575.856 238.879 555.382 241.153 580.405 252.528C598.604 259.353 637.201 270.948 664.533 253.662ZM150.455 250.253C224.009 205.514 418.435 137.875 607.704 225.23C620.595 229.779 638.642 233.419 607.704 211.58C569.031 184.282 350.643 68.2636 150.455 250.253Z" stroke="#49E9F8"/>
</g>
<path d="M164.512 463.6V353.7H207.562V468.15C207.562 473.283 206.395 477.6 204.062 481.1C201.962 484.367 198.462 487.517 193.562 490.55C187.962 494.283 180.262 497.55 170.462 500.35C160.895 503.383 149.928 504.9 137.562 504.9C119.128 504.9 103.028 501.867 89.2615 495.8C75.7282 489.5 65.2282 479.933 57.7615 467.1C50.2949 454.033 46.5615 437.583 46.5615 417.75C46.5615 397.45 50.2949 380.767 57.7615 367.7C65.4615 354.633 75.7282 345.067 88.5615 339C101.395 332.7 115.628 329.55 131.262 329.55C139.895 329.55 147.712 330.6 154.712 332.7C161.945 334.8 167.778 337.25 172.212 340.05V376.8C168.478 373.3 163.578 370.267 157.512 367.7C151.445 365.133 144.445 363.85 136.512 363.85C127.878 363.85 120.062 365.717 113.062 369.45C106.062 372.95 100.578 378.783 96.6115 386.95C92.6449 394.883 90.6615 405.267 90.6615 418.1C90.6615 436.3 94.8615 449.6 103.262 458C111.662 466.4 122.978 470.6 137.212 470.6C143.512 470.6 148.878 469.9 153.312 468.5C157.745 467.1 161.478 465.467 164.512 463.6ZM207.562 362.45L164.512 362.8V272.5C166.145 272.033 168.712 271.45 172.212 270.75C175.945 270.05 179.795 269.7 183.762 269.7C192.162 269.7 198.228 271.217 201.962 274.25C205.695 277.05 207.562 282.183 207.562 289.65V362.45ZM272.104 439.1L270.354 409L364.154 395C363.454 386.133 360.07 378.433 354.004 371.9C347.937 365.367 339.07 362.1 327.404 362.1C315.504 362.1 305.587 366.3 297.654 374.7C289.72 382.867 285.637 394.65 285.404 410.05L286.454 428.25C288.554 443.183 294.27 454.15 303.604 461.15C313.17 468.15 325.187 471.65 339.654 471.65C349.454 471.65 358.554 470.25 366.954 467.45C375.354 464.417 382.004 461.15 386.904 457.65C390.17 459.75 392.737 462.433 394.604 465.7C396.704 468.733 397.754 472.117 397.754 475.85C397.754 481.917 395.07 487.167 389.704 491.6C384.337 495.8 377.104 499.067 368.004 501.4C358.904 503.733 348.52 504.9 336.854 504.9C318.887 504.9 302.904 501.633 288.904 495.1C275.137 488.333 264.287 478.3 256.354 465C248.654 451.7 244.804 435.133 244.804 415.3C244.804 401.067 247.02 388.583 251.454 377.85C255.887 367.117 261.837 358.25 269.304 351.25C277.004 344.017 285.87 338.65 295.904 335.15C305.937 331.417 316.437 329.55 327.404 329.55C342.804 329.55 356.22 332.7 367.654 339C379.32 345.067 388.42 353.583 394.954 364.55C401.72 375.517 405.104 388.117 405.104 402.35C405.104 408.883 403.354 413.783 399.854 417.05C396.587 420.083 391.92 421.95 385.854 422.65L272.104 439.1ZM524.875 364.2C510.875 364.2 499.091 368.75 489.525 377.85C480.191 386.95 475.525 400.25 475.525 417.75C475.525 435.017 480.075 448.083 489.175 456.95C498.275 465.817 510.058 470.25 524.525 470.25C533.158 470.25 540.391 469.2 546.225 467.1C552.291 464.767 557.541 462.317 561.975 459.75C565.475 461.85 568.158 464.417 570.025 467.45C572.125 470.25 573.175 473.75 573.175 477.95C573.175 485.883 568.391 492.417 558.825 497.55C549.258 502.45 536.658 504.9 521.025 504.9C503.291 504.9 487.658 501.75 474.125 495.45C460.825 488.917 450.325 479.117 442.625 466.05C435.158 452.983 431.425 436.883 431.425 417.75C431.425 397.917 435.391 381.467 443.325 368.4C451.491 355.333 462.225 345.65 475.525 339.35C489.058 332.817 503.875 329.55 519.975 329.55C535.375 329.55 547.741 332.233 557.075 337.6C566.408 342.967 571.075 349.617 571.075 357.55C571.075 361.05 570.141 364.317 568.275 367.35C566.408 370.383 564.191 372.833 561.625 374.7C556.958 371.9 551.708 369.45 545.875 367.35C540.041 365.25 533.041 364.2 524.875 364.2ZM766.971 417.05C766.971 435.017 763.471 450.65 756.471 463.95C749.471 477.017 739.554 487.167 726.721 494.4C714.121 501.4 699.188 504.9 681.921 504.9C664.654 504.9 649.604 501.4 636.771 494.4C623.938 487.167 613.904 477.017 606.671 463.95C599.671 450.883 596.171 435.25 596.171 417.05C596.171 399.083 599.788 383.567 607.021 370.5C614.254 357.433 624.288 347.4 637.121 340.4C649.954 333.167 664.888 329.55 681.921 329.55C698.954 329.55 713.771 333.167 726.371 340.4C739.204 347.4 749.121 357.55 756.121 370.85C763.354 383.917 766.971 399.317 766.971 417.05ZM681.921 363.85C669.088 363.85 658.938 368.517 651.471 377.85C644.238 387.183 640.621 400.25 640.621 417.05C640.621 434.317 644.238 447.617 651.471 456.95C658.704 466.05 668.854 470.6 681.921 470.6C694.754 470.6 704.788 465.933 712.021 456.6C719.254 447.267 722.871 434.083 722.871 417.05C722.871 400.483 719.254 387.533 712.021 378.2C704.788 368.633 694.754 363.85 681.921 363.85Z" fill="white"/>
</g>
<defs>
<filter id="filter0_d_1252_11" x="100.46" y="487.295" width="614.079" height="212.705" filterUnits="userSpaceOnUse" color-interpolation-filters="sRGB">
<feFlood flood-opacity="0" result="BackgroundImageFix"/>
<feColorMatrix in="SourceAlpha" type="matrix" values="0 0 0 0 0 0 0 0 0 0 0 0 0 0 0 0 0 0 127 0" result="hardAlpha"/>
<feOffset/>
<feGaussianBlur stdDeviation="25"/>
<feComposite in2="hardAlpha" operator="out"/>
<feColorMatrix type="matrix" values="0 0 0 0 0.878431 0 0 0 0 0.247059 0 0 0 0 0.729412 0 0 0 1 0"/>
<feBlend mode="normal" in2="BackgroundImageFix" result="effect1_dropShadow_1252_11"/>
<feBlend mode="normal" in="SourceGraphic" in2="effect1_dropShadow_1252_11" result="shape"/>
</filter>
<filter id="filter1_d_1252_11" x="100.119" y="99.5005" width="614.926" height="213.705" filterUnits="userSpaceOnUse" color-interpolation-filters="sRGB">
<feFlood flood-opacity="0" result="BackgroundImageFix"/>
<feColorMatrix in="SourceAlpha" type="matrix" values="0 0 0 0 0 0 0 0 0 0 0 0 0 0 0 0 0 0 127 0" result="hardAlpha"/>
<feOffset/>
<feGaussianBlur stdDeviation="25"/>
<feComposite in2="hardAlpha" operator="out"/>
<feColorMatrix type="matrix" values="0 0 0 0 0.286275 0 0 0 0 0.913725 0 0 0 0 0.972549 0 0 0 1 0"/>
<feBlend mode="normal" in2="BackgroundImageFix" result="effect1_dropShadow_1252_11"/>
<feBlend mode="normal" in="SourceGraphic" in2="effect1_dropShadow_1252_11" result="shape"/>
</filter>
<clipPath id="clip0_1252_11">
<rect width="800" height="800" fill="white"/>
</clipPath>
</defs>
</svg>
